<svg width="227" height="32" viewBox="0 0 227 32" fill="none" xmlns="http://www.w3.org/2000/svg">
<path d="M0 7C0 3.13401 3.13401 0 7 0H220C223.866 0 227 3.13401 227 7V25C227 28.866 223.866 32 220 32H7C3.13401 32 0 28.866 0 25V7Z" fill="white"/>
<path d="M209.533 20.0884C207.371 20.0884 206.061 18.6382 206.061 16.3231V16.3165C206.061 14.028 207.384 12.5312 209.453 12.5312C211.522 12.5312 212.799 13.9815 212.799 16.1768V16.7223H207.717C207.737 18.0261 208.442 18.7845 209.566 18.7845C210.464 18.7845 210.977 18.3322 211.136 17.9995L211.156 17.953H212.733L212.713 18.0128C212.48 18.9508 211.509 20.0884 209.533 20.0884ZM209.473 13.8285C208.549 13.8285 207.857 14.4538 207.73 15.6113H211.183C211.07 14.4205 210.398 13.8285 209.473 13.8285Z" fill="#007AFF"/>
<path d="M204.302 19.9778C202.633 19.9778 201.947 19.419 201.947 18.0154V13.9574H200.816V12.6735H201.947V10.8906H203.63V12.6735H205.167V13.9574H203.63V17.6229C203.63 18.348 203.916 18.654 204.608 18.654C204.841 18.654 204.968 18.6473 205.167 18.6274V19.9047C204.928 19.9512 204.622 19.9778 204.302 19.9778Z" fill="#007AFF"/>
<path d="M198.905 11.4558C198.36 11.4558 197.914 11.0234 197.914 10.4779C197.914 9.93906 198.36 9.5 198.905 9.5C199.444 9.5 199.89 9.93906 199.89 10.4779C199.89 11.0234 199.444 11.4558 198.905 11.4558ZM198.074 19.9443V12.6732H199.73V19.9443H198.074Z" fill="#007AFF"/>
<path d="M193.624 20.0884C191.775 20.0884 190.657 19.2369 190.518 18.0062V17.9929H192.161L192.167 18.0062C192.34 18.5118 192.826 18.8644 193.651 18.8644C194.476 18.8644 195.048 18.4918 195.048 17.9463V17.933C195.048 17.5073 194.729 17.2279 193.93 17.0482L192.753 16.7821C191.369 16.4761 190.71 15.8242 190.71 14.7532V14.7465C190.71 13.436 191.908 12.5312 193.624 12.5312C195.394 12.5312 196.452 13.4094 196.558 14.5868V14.6002H195.001L194.995 14.5802C194.875 14.1212 194.396 13.7486 193.618 13.7486C192.879 13.7486 192.347 14.1079 192.347 14.6534V14.66C192.347 15.0858 192.653 15.3452 193.438 15.5248L194.615 15.7843C196.039 16.1036 196.711 16.709 196.711 17.7667V17.78C196.711 19.1637 195.414 20.0884 193.624 20.0884Z" fill="#007AFF"/>
<path d="M186.56 20.0642C185.542 20.0642 184.751 19.5985 184.352 18.8069H184.238V19.9444H182.582V9.85938H184.238V13.8309H184.352C184.731 13.0459 185.562 12.5536 186.56 12.5536C188.403 12.5536 189.547 13.9905 189.547 16.3056V16.3189C189.547 18.6206 188.383 20.0642 186.56 20.0642ZM186.041 18.6672C187.172 18.6672 187.857 17.7824 187.857 16.3189V16.3056C187.857 14.842 187.172 13.9506 186.041 13.9506C184.917 13.9506 184.219 14.8487 184.219 16.3056V16.3189C184.219 17.7758 184.917 18.6672 186.041 18.6672Z" fill="#007AFF"/>
<path d="M177.92 20.0884C175.758 20.0884 174.447 18.6382 174.447 16.3231V16.3165C174.447 14.028 175.771 12.5312 177.84 12.5312C179.909 12.5312 181.186 13.9815 181.186 16.1768V16.7223H176.104C176.124 18.0261 176.829 18.7845 177.953 18.7845C178.851 18.7845 179.363 18.3322 179.523 17.9995L179.543 17.953H181.12L181.1 18.0128C180.867 18.9508 179.896 20.0884 177.92 20.0884ZM177.86 13.8285C176.935 13.8285 176.243 14.4538 176.117 15.6113H179.57C179.457 14.4205 178.785 13.8285 177.86 13.8285Z" fill="#007AFF"/>
<path d="M164.496 19.9471L161.922 10.3477H163.711L165.355 17.5522H165.454L167.344 10.3477H168.867L170.783 17.5522H170.876L172.519 10.3477H174.295L171.721 19.9471H170.111L168.155 13.0751H168.055L166.113 19.9471H164.496Z" fill="#007AFF"/>
<path d="M152.271 22.5014C152.072 22.5014 151.839 22.4948 151.639 22.4748V21.2042C151.772 21.2175 151.959 21.2241 152.132 21.2241C152.81 21.2241 153.216 20.9447 153.395 20.2861L153.482 19.9535L150.881 12.6758H152.69L154.387 18.3569H154.513L156.203 12.6758H157.946L155.338 20.0999C154.713 21.9226 153.881 22.5014 152.271 22.5014Z" fill="#007AFF"/>
<path d="M146.047 19.9455V12.6744H147.703V13.792H147.816C148.063 13.0137 148.728 12.5547 149.686 12.5547C149.939 12.5547 150.198 12.5879 150.358 12.6345V14.118C150.092 14.0648 149.819 14.0249 149.533 14.0249C148.428 14.0249 147.703 14.6835 147.703 15.7212V19.9455H146.047Z" fill="#007AFF"/>
<path d="M141.451 20.0884C139.289 20.0884 137.979 18.6382 137.979 16.3231V16.3165C137.979 14.028 139.302 12.5312 141.371 12.5312C143.44 12.5312 144.717 13.9815 144.717 16.1768V16.7223H139.635C139.655 18.0261 140.36 18.7845 141.484 18.7845C142.382 18.7845 142.895 18.3322 143.054 17.9995L143.074 17.953H144.651L144.631 18.0128C144.398 18.9508 143.427 20.0884 141.451 20.0884ZM141.391 13.8285C140.467 13.8285 139.775 14.4538 139.648 15.6113H143.101C142.988 14.4205 142.316 13.8285 141.391 13.8285Z" fill="#007AFF"/>
<path d="M133.17 19.9469L130.582 12.6758H132.352L134.035 18.3303H134.148L135.817 12.6758H137.56L134.986 19.9469H133.17Z" fill="#007AFF"/>
<path d="M123.371 19.9471V10.3477H129.584V11.7912H125.087V14.3923H129.338V15.7561H125.087V18.5035H129.584V19.9471H123.371Z" fill="#007AFF"/>
<path d="M111.893 19.942V12.671H113.549V13.7819H113.662C114.008 13.0036 114.707 12.5312 115.758 12.5312C117.381 12.5312 118.266 13.5092 118.266 15.2388V19.942H116.609V15.6246C116.609 14.4937 116.15 13.9216 115.146 13.9216C114.161 13.9216 113.549 14.6135 113.549 15.7045V19.942H111.893Z" fill="#007AFF"/>
<path d="M105.885 20.18C103.071 20.18 101.342 18.2308 101.342 15.1441V15.1308C101.342 12.0374 103.098 10.1016 105.885 10.1016C108.679 10.1016 110.422 12.0374 110.422 15.1308V15.1441C110.422 18.2308 108.686 20.18 105.885 20.18ZM105.885 18.6965C107.595 18.6965 108.673 17.2995 108.673 15.1441V15.1308C108.673 12.9621 107.588 11.5851 105.885 11.5851C104.182 11.5851 103.091 12.9621 103.091 15.1308V15.1441C103.091 17.2995 104.156 18.6965 105.885 18.6965Z" fill="#007AFF"/>
<path d="M88.7894 19.9469L86.8203 12.6758H88.4834L89.6942 18.1374H89.8072L91.2043 12.6758H92.7809L94.1912 18.1374H94.3043L95.5084 12.6758H97.1515L95.1824 19.9469H93.4461L92.0292 14.6782H91.9161L90.5058 19.9469H88.7894Z" fill="#007AFF"/>
<path d="M82.8644 20.0884C80.6824 20.0884 79.3652 18.6648 79.3652 16.3098V16.2965C79.3652 13.9615 80.7024 12.5312 82.8644 12.5312C85.0331 12.5312 86.3636 13.9549 86.3636 16.2965V16.3098C86.3636 18.6648 85.0397 20.0884 82.8644 20.0884ZM82.8644 18.7446C84.0153 18.7446 84.6672 17.8465 84.6672 16.3165V16.3032C84.6672 14.7731 84.0086 13.8684 82.8644 13.8684C81.7135 13.8684 81.0549 14.7731 81.0549 16.3032V16.3165C81.0549 17.8465 81.7135 18.7446 82.8644 18.7446Z" fill="#007AFF"/>
<path d="M76.2988 19.9444V9.85938H77.9553V19.9444H76.2988Z" fill="#007AFF"/>
<path d="M72.8066 19.9444V9.85938H74.4631V19.9444H72.8066Z" fill="#007AFF"/>
<path d="M62.8438 19.9471L66.2498 10.3477H68.1856L71.5917 19.9471H69.7955L68.9906 17.4657H65.4382L64.6399 19.9471H62.8438ZM67.1612 12.1305L65.8706 16.1419H68.5648L67.2743 12.1305H67.1612Z" fill="#007AFF"/>
<path d="M55.6477 20.0884C53.7983 20.0884 52.6807 19.2369 52.541 18.0062V17.9929H54.1842L54.1908 18.0062C54.3638 18.5118 54.8494 18.8644 55.6743 18.8644C56.4992 18.8644 57.0713 18.4918 57.0713 17.9463V17.933C57.0713 17.5073 56.752 17.2279 55.9537 17.0482L54.7762 16.7821C53.3925 16.4761 52.7339 15.8242 52.7339 14.7532V14.7465C52.7339 13.436 53.9314 12.5312 55.6477 12.5312C57.4172 12.5312 58.475 13.4094 58.5814 14.5868V14.6002H57.0247L57.0181 14.5802C56.8983 14.1212 56.4194 13.7486 55.641 13.7486C54.9026 13.7486 54.3704 14.1079 54.3704 14.6534V14.66C54.3704 15.0858 54.6764 15.3452 55.4614 15.5248L56.6389 15.7843C58.0625 16.1036 58.7344 16.709 58.7344 17.7667V17.78C58.7344 19.1637 57.4372 20.0884 55.6477 20.0884Z" fill="#007AFF"/>
<path d="M46.3279 22.5014C46.1283 22.5014 45.8954 22.4948 45.6959 22.4748V21.2042C45.8289 21.2175 46.0152 21.2241 46.1882 21.2241C46.8667 21.2241 47.2725 20.9447 47.4521 20.2861L47.5386 19.9535L44.9375 12.6758H46.747L48.4433 18.3569H48.5697L50.2594 12.6758H52.0024L49.3946 20.0999C48.7693 21.9226 47.9377 22.5014 46.3279 22.5014Z" fill="#007AFF"/>
<path d="M40.2359 20.0618C38.8522 20.0618 37.8477 19.2103 37.8477 17.8864V17.8731C37.8477 16.5759 38.8389 15.8175 40.6084 15.7111L42.4777 15.598V14.9727C42.4777 14.2476 42.0054 13.8484 41.114 13.8484C40.3556 13.8484 39.8633 14.1212 39.697 14.6002L39.6904 14.6268H38.1271L38.1337 14.5669C38.2934 13.3428 39.4642 12.5312 41.1938 12.5312C43.0632 12.5312 44.1142 13.436 44.1142 14.9727V19.942H42.4777V18.9442H42.3646C41.9655 19.6493 41.1938 20.0618 40.2359 20.0618ZM39.4842 17.8066C39.4842 18.4253 40.0097 18.7912 40.7415 18.7912C41.7393 18.7912 42.4777 18.1392 42.4777 17.2744V16.689L40.8412 16.7955C39.9166 16.8553 39.4842 17.1946 39.4842 17.7933V17.8066Z" fill="#007AFF"/>
<path d="M28.975 19.9469L27.0059 12.6758H28.669L29.8797 18.1374H29.9928L31.3898 12.6758H32.9664L34.3767 18.1374H34.4898L35.6939 12.6758H37.3371L35.3679 19.9469H33.6317L32.2147 14.6782H32.1016L30.6913 19.9469H28.975Z" fill="#007AFF"/>
<path d="M24.166 19.9444V9.85938H25.8225V19.9444H24.166Z" fill="#007AFF"/>
<path d="M14.2012 19.9471L17.6072 10.3477H19.5431L22.9491 19.9471H21.1529L20.348 17.4657H16.7956L15.9973 19.9471H14.2012ZM18.5186 12.1305L17.228 16.1419H19.9223L18.6317 12.1305H18.5186Z" fill="#007AFF"/>
</svg>
