<svg width="130" height="32" viewBox="0 0 130 32" fill="none" xmlns="http://www.w3.org/2000/svg">
<path d="M0 7C0 3.13401 3.13401 0 7 0H123C126.866 0 130 3.13401 130 7V25C130 28.866 126.866 32 123 32H7C3.13401 32 0 28.866 0 25V7Z" fill="white"/>
<path d="M112.103 20.0097C111.481 20.0097 111.016 19.5376 111.016 18.9287C111.016 18.3197 111.481 17.8477 112.103 17.8477C112.733 17.8477 113.191 18.3197 113.191 18.9287C113.191 19.5376 112.733 20.0097 112.103 20.0097Z" fill="#007AFF"/>
<path d="M107.826 20.0097C107.204 20.0097 106.738 19.5376 106.738 18.9287C106.738 18.3197 107.204 17.8477 107.826 17.8477C108.456 17.8477 108.914 18.3197 108.914 18.9287C108.914 19.5376 108.456 20.0097 107.826 20.0097Z" fill="#007AFF"/>
<path d="M103.551 20.0097C102.928 20.0097 102.463 19.5376 102.463 18.9287C102.463 18.3197 102.928 17.8477 103.551 17.8477C104.18 17.8477 104.639 18.3197 104.639 18.9287C104.639 19.5376 104.18 20.0097 103.551 20.0097Z" fill="#007AFF"/>
<path d="M93.5213 19.8727L91.4961 12.3945H93.2066L94.4518 18.0117H94.5681L96.0049 12.3945H97.6264L99.0769 18.0117H99.1932L100.432 12.3945H102.122L100.096 19.8727H98.3106L96.8533 14.4539H96.737L95.2865 19.8727H93.5213Z" fill="#007AFF"/>
<path d="M87.4289 20.0224C85.1848 20.0224 83.8301 18.5582 83.8301 16.1362V16.1225C83.8301 13.721 85.2053 12.25 87.4289 12.25C89.6594 12.25 91.0278 13.7142 91.0278 16.1225V16.1362C91.0278 18.5582 89.6662 20.0224 87.4289 20.0224ZM87.4289 18.6403C88.6126 18.6403 89.2831 17.7167 89.2831 16.143V16.1294C89.2831 14.5557 88.6057 13.6252 87.4289 13.6252C86.2453 13.6252 85.5679 14.5557 85.5679 16.1294V16.143C85.5679 17.7167 86.2453 18.6403 87.4289 18.6403Z" fill="#007AFF"/>
<path d="M80.6738 19.8723V9.5H82.3775V19.8723H80.6738Z" fill="#007AFF"/>
<path d="M77.084 19.8723V9.5H78.7876V19.8723H77.084Z" fill="#007AFF"/>
<path d="M66.8359 19.8689L70.339 9.99609H72.33L75.833 19.8689H73.9857L73.1578 17.3169H69.5043L68.6832 19.8689H66.8359ZM71.2763 11.8297L69.949 15.9554H72.72L71.3926 11.8297H71.2763Z" fill="#007AFF"/>
<path d="M59.4354 20.0224C57.5334 20.0224 56.3839 19.1466 56.2402 17.8809V17.8672H57.9302L57.937 17.8809C58.1149 18.4009 58.6144 18.7635 59.4628 18.7635C60.3112 18.7635 60.8996 18.3803 60.8996 17.8193V17.8056C60.8996 17.3677 60.5712 17.0804 59.7501 16.8956L58.5391 16.622C57.116 16.3072 56.4386 15.6367 56.4386 14.5352V14.5284C56.4386 13.1805 57.6702 12.25 59.4354 12.25C61.2553 12.25 62.3432 13.1531 62.4527 14.3641V14.3778H60.8517L60.8448 14.3573C60.7217 13.8852 60.2291 13.5021 59.4286 13.5021C58.6691 13.5021 58.1218 13.8715 58.1218 14.4326V14.4394C58.1218 14.8773 58.4365 15.1441 59.2438 15.3289L60.4548 15.5957C61.919 15.9241 62.61 16.5467 62.61 17.6346V17.6483C62.61 19.0714 61.2759 20.0224 59.4354 20.0224Z" fill="#007AFF"/>
<path d="M49.8499 22.5C49.6446 22.5 49.4052 22.4932 49.1999 22.4726V21.1658C49.3367 21.1795 49.5283 21.1864 49.7062 21.1864C50.4041 21.1864 50.8214 20.899 51.0062 20.2217L51.0951 19.8796L48.4199 12.3945H50.2809L52.0256 18.2375H52.1556L53.8934 12.3945H55.686L53.004 20.0301C52.3609 21.9048 51.5056 22.5 49.8499 22.5Z" fill="#007AFF"/>
<path d="M43.5851 19.995C42.162 19.995 41.1289 19.1193 41.1289 17.7577V17.744C41.1289 16.4099 42.1483 15.6299 43.9683 15.5204L45.8909 15.4041V14.761C45.8909 14.0152 45.4051 13.6047 44.4883 13.6047C43.7083 13.6047 43.202 13.8852 43.031 14.3778L43.0241 14.4052H41.4163L41.4231 14.3436C41.5873 13.0847 42.7915 12.25 44.5704 12.25C46.493 12.25 47.574 13.1805 47.574 14.761V19.8719H45.8909V18.8456H45.7746C45.364 19.5708 44.5704 19.995 43.5851 19.995ZM42.812 17.6756C42.812 18.3119 43.3525 18.6882 44.1051 18.6882C45.1314 18.6882 45.8909 18.0177 45.8909 17.1283V16.5262L44.2078 16.6357C43.2567 16.6972 42.812 17.0462 42.812 17.6619V17.6756Z" fill="#007AFF"/>
<path d="M32.0018 19.8727L29.9766 12.3945H31.687L32.9323 18.0117H33.0486L34.4854 12.3945H36.1069L37.5574 18.0117H37.6737L38.9121 12.3945H40.602L38.5768 19.8727H36.7911L35.3338 14.4539H35.2175L33.767 19.8727H32.0018Z" fill="#007AFF"/>
<path d="M27.0586 19.8723V9.5H28.7622V19.8723H27.0586Z" fill="#007AFF"/>
<path d="M16.8086 19.8689L20.3116 9.99609H22.3026L25.8057 19.8689H23.9584L23.1305 17.3169H19.4769L18.6559 19.8689H16.8086ZM21.249 11.8297L19.9217 15.9554H22.6926L21.3653 11.8297H21.249Z" fill="#007AFF"/>
</svg>
