<svg width="53" height="52" xmlns="http://www.w3.org/2000/svg" fill="none">

 <g>
  <title>Layer 1</title>
  <path id="svg_1" fill="#000000" d="m14.9088,8.69462c1.4042,0 2.8084,0.00302 4.2126,-0.00075c2.7581,-0.00755 5.5162,-0.02642 8.2744,-0.02717c1.8033,-0.00076 3.6073,0.01132 5.4106,0.03999c0.9275,0.0151 1.8557,0.04981 2.7581,0.32602c1.5431,0.47167 2.6576,1.41049 3.1232,3.02249c0.1464,0.5071 0.1936,1.0474 0.252,1.5757c0.1493,1.3516 0.1264,2.71 0.1116,4.0669c-0.0111,1.0619 -0.0436,2.1229 -0.0621,3.184c-0.0029,0.1811 0.02,0.363 0.0274,0.5449c0.0052,0.1252 0.0732,0.1343 0.1611,0.0898c0.116,-0.0581 0.2262,-0.1276 0.3415,-0.1872c1.0398,-0.5403 2.1003,-1.0226 3.2629,-1.221c1.2586,-0.2151 2.461,-0.0333 3.6183,0.5094c0.8455,0.3962 1.589,0.9335 2.2068,1.6444c0.6172,0.7101 1.051,1.5282 1.3422,2.4278c0.3052,0.941 0.4301,1.91 0.3688,2.8941c-0.1043,1.6678 -0.6268,3.1742 -1.7235,4.4495c-0.6349,0.7381 -1.4101,1.2566 -2.277,1.6641c-0.8721,0.4098 -1.7752,0.6332 -2.7345,0.5932c-0.8706,-0.0363 -1.705,-0.2529 -2.5032,-0.6008c-0.6112,-0.2664 -1.2061,-0.5705 -1.807,-0.8603c-0.2365,-0.1139 -0.2571,-0.1041 -0.2564,0.1638c0.0022,1.0128 0.0022,2.0248 0.0089,3.0375c0.0051,0.8234 0.051,1.6475 0.0192,2.4693c-0.0392,1.0211 -0.0821,2.0489 -0.2276,3.0579c-0.2025,1.403 -0.9726,2.4459 -2.1936,3.1327c-0.8003,0.4505 -1.6702,0.5894 -2.5704,0.6626c-2.0213,0.1652 -4.0448,0.1449 -6.069,0.1464c-0.9113,0.0007 -1.8225,-0.0023 -2.7345,-0.0083c-0.6955,-0.0053 -1.3902,-0.0257 -2.0856,-0.0257c-0.714,0 -1.4271,0.0242 -2.1411,0.0242c-0.6644,0 -1.3288,-0.0272 -1.9932,-0.0257c-2.1366,0.0053 -4.2724,0.0332 -6.4083,0.0219c-0.8839,-0.0045 -1.7678,-0.0891 -2.6517,-0.1343c-0.60898,-0.0317 -1.215,-0.08 -1.80106,-0.271c-1.14849,-0.3735 -2.05604,-1.0557 -2.65763,-2.1395c-0.33774,-0.6082 -0.50403,-1.2625 -0.53433,-1.9568c-0.02735,-0.64 -0.05543,-1.2792 -0.07465,-1.9191c-0.01847,-0.6091 -0.02808,-1.2181 -0.03768,-1.8271c-0.01257,-0.8105 -0.02957,-1.621 -0.02883,-2.4315c0,-0.6906 0.01774,-1.3818 0.03621,-2.0724c0.01774,-0.6716 0.04065,-1.3425 0.07317,-2.0134c0.04213,-0.8626 0.52694,-1.406 1.25564,-1.7561c0.83218,-0.4008 1.59635,-0.2106 2.33688,0.2747c0.69397,0.455 1.41602,0.8648 2.10408,1.3282c1.3916,0.9365 2.9791,0.5531 4.0315,-0.2634c0.8056,-0.6256 1.3207,-1.4452 1.4833,-2.4783c0.2904,-1.8452 -0.5166,-3.513 -2.1115,-4.3183c-1.1522,-0.5818 -2.3228,-0.5426 -3.4395,0.1389c-0.62821,0.3834 -1.22979,0.8113 -1.85281,1.2037c-0.52177,0.329 -1.07532,0.5818 -1.70425,0.6068c-0.92012,0.0362 -1.68208,-0.6755 -1.9644,-1.4226c-0.19659,-0.52 -0.22319,-1.0626 -0.22245,-1.6112c0.00295,-1.8233 0.00295,-3.6473 0,-5.4706c-0.00074,-0.4581 -0.03548,-0.9169 -0.02661,-1.375c0.0207,-1.0792 0.0776,-2.1554 0.28601,-3.2195c0.24241,-1.2391 0.92973,-2.1402 1.96883,-2.78167c0.73462,-0.4528 1.55127,-0.64902 2.39231,-0.76674c1.16987,-0.16452 2.34647,-0.10264 3.52087,-0.11396c0.637,-0.00679 1.2719,-0.00151 1.906,-0.00151zm6.8909,33.66208c0,-0.0008 0,-0.0008 0,-0.0015c1.7242,0 3.4491,0.0045 5.1733,-0.0015c1.9888,-0.0068 3.9769,-0.0144 5.9656,-0.0423c0.5772,-0.0083 1.1581,-0.0709 1.6895,-0.3373c0.5868,-0.2936 1.0295,-0.7351 1.1278,-1.4173c0.1049,-0.7313 0.2032,-1.4709 0.2121,-2.2074c0.0163,-1.369 -0.0384,-2.7387 -0.0569,-4.1084c-0.0163,-1.2 0.02,-2.3954 0.1752,-3.59c0.1271,-0.9796 1.0516,-1.8165 2.0479,-1.8067c0.6429,0.006 1.2054,0.2317 1.7375,0.5562c0.7021,0.4287 1.3783,0.9018 2.087,1.3184c0.5765,0.3389 1.1973,0.5298 1.8876,0.4422c0.9031,-0.1147 1.6821,-0.4852 2.3184,-1.1335c1.028,-1.0474 1.3975,-2.3243 1.0916,-3.7688c-0.303,-1.4286 -1.1914,-2.3727 -2.5158,-2.8783c-0.8883,-0.3396 -1.7796,-0.3653 -2.6302,0.1494c-0.8618,0.5215 -1.722,1.0452 -2.5816,1.5697c-0.5528,0.3374 -1.1477,0.4528 -1.7737,0.3125c-0.8188,-0.1834 -1.4101,-0.686 -1.5978,-1.5199c-0.1559,-0.6913 -0.2224,-1.4158 -0.2328,-2.1267c-0.0192,-1.3056 0.0407,-2.6127 0.0517,-3.9198c0.0067,-0.8293 0.0067,-1.6595 -0.034,-2.4873c-0.0303,-0.6249 -0.0694,-1.2611 -0.2128,-1.8656c-0.1811,-0.763 -0.7272,-1.2354 -1.4596,-1.4595c-0.7339,-0.2249 -1.4988,-0.2121 -2.2512,-0.2204c-1.7234,-0.0181 -3.4476,0.0219 -5.1711,0.0204c-3.3435,-0.003 -6.6869,-0.0294 -10.0304,-0.0234c-2.0863,0.0038 -4.1742,-0.074 -6.259,0.0687c-0.5107,0.0347 -1.01843,0.1162 -1.46999,0.3886c-0.48038,0.2891 -0.88981,0.6611 -0.97258,1.2566c-0.15373,1.095 -0.19659,2.1983 -0.17442,3.3054c0.02513,1.2377 0.02956,2.4761 0.03843,3.7145c0.00148,0.2317 -0.02439,0.4641 -0.02808,0.6958c-0.00444,0.2355 0.03843,0.2566 0.24536,0.16c0.64889,-0.3019 1.2926,-0.6188 1.95188,-0.8966c0.7442,-0.3131 1.5239,-0.5131 2.3317,-0.5199c1.3775,-0.0121 2.645,0.3675 3.7861,1.1735c1.0679,0.7547 1.8395,1.7538 2.3539,2.9606c0.5587,1.3093 0.725,2.6775 0.5203,4.0895c-0.2535,1.7493 -1.0044,3.2375 -2.3184,4.3945c-0.4191,0.369 -0.9091,0.6724 -1.4042,0.9305c-0.9305,0.4845 -1.9415,0.6769 -2.9828,0.6769c-0.7782,0 -1.5313,-0.1728 -2.2438,-0.483c-0.69026,-0.3003 -1.35983,-0.649 -2.03828,-0.9773c-0.15742,-0.0762 -0.20324,-0.0528 -0.20176,0.1223c0.00147,0.1818 0.0303,0.3637 0.02734,0.5448c-0.01774,1.1245 -0.06282,2.249 -0.05616,3.3734c0.00591,1.0105 0.05468,2.021 0.10937,3.0308c0.01922,0.3479 0.07317,0.7056 0.17959,1.0354c0.21285,0.6611 0.71097,1.0369 1.34655,1.2324c0.78115,0.2407 1.59335,0.255 2.39525,0.2596c3.2814,0.0211 6.5643,0.0098 9.8464,0.0098z"/>
 </g>
</svg>