<svg width="53" height="52" viewBox="0 0 53 52" fill="none" xmlns="http://www.w3.org/2000/svg">
<path d="M14.9088 8.69462C16.313 8.69462 17.7172 8.69764 19.1214 8.69387C21.8795 8.68632 24.6376 8.66745 27.3958 8.6667C29.1991 8.66594 31.0031 8.67802 32.8064 8.70669C33.7339 8.72179 34.6621 8.7565 35.5645 9.03271C37.1076 9.50438 38.2221 10.4432 38.6877 12.0552C38.8341 12.5623 38.8813 13.1026 38.9397 13.6309C39.089 14.9825 39.0661 16.3409 39.0513 17.6978C39.0402 18.7597 39.0077 19.8207 38.9892 20.8818C38.9863 21.0629 39.0092 21.2448 39.0166 21.4267C39.0218 21.5519 39.0898 21.561 39.1777 21.5165C39.2937 21.4584 39.4039 21.3889 39.5192 21.3293C40.559 20.789 41.6195 20.3067 42.7821 20.1083C44.0407 19.8932 45.2431 20.075 46.4004 20.6177C47.2459 21.0139 47.9894 21.5512 48.6072 22.2621C49.2244 22.9722 49.6582 23.7903 49.9494 24.6899C50.2546 25.6309 50.3795 26.5999 50.3182 27.584C50.2139 29.2518 49.6914 30.7582 48.5947 32.0335C47.9598 32.7716 47.1846 33.2901 46.3177 33.6976C45.4456 34.1074 44.5425 34.3308 43.5832 34.2908C42.7126 34.2545 41.8782 34.0379 41.08 33.69C40.4688 33.4236 39.8739 33.1195 39.273 32.8297C39.0365 32.7158 39.0159 32.7256 39.0166 32.9935C39.0188 34.0063 39.0188 35.0183 39.0255 36.031C39.0306 36.8544 39.0765 37.6785 39.0447 38.5003C39.0055 39.5214 38.9626 40.5492 38.8171 41.5582C38.6146 42.9612 37.8445 44.0041 36.6235 44.6909C35.8232 45.1414 34.9533 45.2803 34.0531 45.3535C32.0318 45.5187 30.0083 45.4984 27.9841 45.4999C27.0728 45.5006 26.1616 45.4976 25.2496 45.4916C24.5541 45.4863 23.8594 45.4659 23.164 45.4659C22.45 45.4659 21.7369 45.4901 21.0229 45.4901C20.3585 45.4901 19.6941 45.4629 19.0297 45.4644C16.8931 45.4697 14.7573 45.4976 12.6214 45.4863C11.7375 45.4818 10.8536 45.3972 9.9697 45.352C9.36072 45.3203 8.7547 45.272 8.16864 45.081C7.02015 44.7075 6.1126 44.0253 5.51101 42.9415C5.17327 42.3333 5.00698 41.679 4.97668 40.9847C4.94933 40.3447 4.92125 39.7055 4.90203 39.0656C4.88356 38.4565 4.87395 37.8475 4.86435 37.2385C4.85178 36.428 4.83478 35.6175 4.83552 34.807C4.83552 34.1164 4.85326 33.4252 4.87173 32.7346C4.88947 32.063 4.91238 31.3921 4.9449 30.7212C4.98703 29.8586 5.47184 29.3152 6.20054 28.9651C7.03272 28.5643 7.79689 28.7545 8.53742 29.2398C9.23139 29.6948 9.95344 30.1046 10.6415 30.568C12.0331 31.5045 13.6206 31.1211 14.673 30.3046C15.4786 29.679 15.9937 28.8594 16.1563 27.8263C16.4467 25.9811 15.6397 24.3133 14.0448 23.508C12.8926 22.9262 11.722 22.9654 10.6053 23.6469C9.97709 24.0303 9.37551 24.4582 8.75249 24.8506C8.23072 25.1796 7.67717 25.4324 7.04824 25.4574C6.12812 25.4936 5.36616 24.7819 5.08384 24.0348C4.88725 23.5148 4.86065 22.9722 4.86139 22.4236C4.86434 20.6003 4.86434 18.7763 4.86139 16.953C4.86065 16.4949 4.82591 16.0361 4.83478 15.578C4.85548 14.4988 4.91238 13.4226 5.12079 12.3585C5.3632 11.1194 6.05052 10.2183 7.08962 9.57683C7.82424 9.12403 8.64089 8.92781 9.48193 8.81009C10.6518 8.64557 11.8284 8.70745 13.0028 8.69613C13.6398 8.68934 14.2747 8.69462 14.9088 8.69462ZM21.7997 42.3567C21.7997 42.3559 21.7997 42.3559 21.7997 42.3552C23.5239 42.3552 25.2488 42.3597 26.973 42.3537C28.9618 42.3469 30.9499 42.3393 32.9386 42.3114C33.5158 42.3031 34.0967 42.2405 34.6281 41.9741C35.2149 41.6805 35.6576 41.239 35.7559 40.5568C35.8608 39.8255 35.9591 39.0859 35.968 38.3494C35.9843 36.9804 35.9296 35.6107 35.9111 34.241C35.8948 33.041 35.9311 31.8456 36.0863 30.651C36.2134 29.6714 37.1379 28.8345 38.1342 28.8443C38.7771 28.8503 39.3396 29.076 39.8717 29.4005C40.5738 29.8292 41.25 30.3023 41.9587 30.7189C42.5352 31.0578 43.156 31.2487 43.8463 31.1611C44.7494 31.0464 45.5284 30.6759 46.1647 30.0276C47.1927 28.9802 47.5622 27.7033 47.2563 26.2588C46.9533 24.8302 46.0649 23.8861 44.7405 23.3805C43.8522 23.0409 42.9609 23.0152 42.1103 23.5299C41.2485 24.0514 40.3883 24.5751 39.5287 25.0996C38.9759 25.437 38.381 25.5524 37.755 25.4121C36.9362 25.2287 36.3449 24.7261 36.1572 23.8922C36.0013 23.2009 35.9348 22.4764 35.9244 21.7655C35.9052 20.4599 35.9651 19.1528 35.9761 17.8457C35.9828 17.0164 35.9828 16.1862 35.9421 15.3584C35.9118 14.7335 35.8727 14.0973 35.7293 13.4928C35.5482 12.7298 35.0021 12.2574 34.2697 12.0333C33.5358 11.8084 32.7709 11.8212 32.0185 11.8129C30.2951 11.7948 28.5709 11.8348 26.8474 11.8333C23.5039 11.8303 20.1605 11.8039 16.817 11.8099C14.7307 11.8137 12.6428 11.7359 10.558 11.8786C10.0473 11.9133 9.53957 11.9948 9.08801 12.2672C8.60763 12.5563 8.1982 12.9283 8.11543 13.5238C7.9617 14.6188 7.91884 15.7221 7.94101 16.8292C7.96614 18.0669 7.97057 19.3053 7.97944 20.5437C7.98092 20.7754 7.95505 21.0078 7.95136 21.2395C7.94692 21.475 7.98979 21.4961 8.19672 21.3995C8.84561 21.0976 9.48932 20.7807 10.1486 20.5029C10.8928 20.1898 11.6725 19.9898 12.4803 19.983C13.8578 19.9709 15.1253 20.3505 16.2664 21.1565C17.3343 21.9112 18.1059 22.9103 18.6203 24.1171C19.179 25.4264 19.3453 26.7946 19.1406 28.2066C18.8871 29.9559 18.1362 31.4441 16.8222 32.6011C16.4031 32.9701 15.9131 33.2735 15.418 33.5316C14.4875 34.0161 13.4765 34.2085 12.4352 34.2085C11.657 34.2085 10.9039 34.0357 10.1914 33.7255C9.50114 33.4252 8.83157 33.0765 8.15312 32.7482C7.9957 32.672 7.94988 32.6954 7.95136 32.8705C7.95283 33.0523 7.98166 33.2342 7.9787 33.4153C7.96096 34.5398 7.91588 35.6643 7.92254 36.7887C7.92845 37.7992 7.97722 38.8097 8.03191 39.8195C8.05113 40.1674 8.10508 40.5251 8.2115 40.8549C8.42435 41.516 8.92247 41.8918 9.55805 42.0873C10.3392 42.328 11.1514 42.3423 11.9533 42.3469C15.2347 42.368 18.5176 42.3567 21.7997 42.3567Z" fill="#007AFF"/>
</svg>
