<svg width="82" height="82" viewBox="0 0 82 82" fill="none" xmlns="http://www.w3.org/2000/svg">
<g filter="url(#filter0_d_0_328)">
<path d="M-16.385 16.9676H-13.4662C-6.92736 16.9676 -3.65795 16.9676 -1.16045 18.2401C1.03641 19.3595 2.82252 21.1456 3.94187 23.3424C5.21441 25.8399 5.21441 29.1093 5.21441 35.6482V47.3235C5.21441 53.8623 5.21441 57.1318 3.94187 59.6293C2.82252 61.8261 1.03641 63.6122 -1.16045 64.7316C-3.65795 66.0041 -6.92736 66.0041 -13.4662 66.0041H-16.385V16.9676Z" fill="white"/>
</g>
<g filter="url(#filter1_d_0_328)">
<rect x="14.5547" y="16.9676" width="393.46" height="49.0365" rx="11.6754" fill="white"/>
<path d="M41.3624 48.1318C40.8881 48.1318 40.5962 47.849 40.5962 47.393C40.5962 47.2379 40.6236 47.092 40.6966 46.9004L44.9745 35.4896C45.1752 34.9332 45.5583 34.6595 46.1238 34.6595C46.7076 34.6595 47.0816 34.9423 47.2913 35.4987L51.5693 46.8913C51.6422 47.0828 51.6696 47.2288 51.6696 47.3838C51.6696 47.8399 51.3595 48.1318 50.876 48.1318C50.4017 48.1318 50.1646 47.9494 49.9913 47.4386L48.8146 44.2187H43.433L42.2563 47.4386C42.083 47.9494 41.8368 48.1318 41.3624 48.1318ZM43.8799 42.8323H48.3585L46.142 36.6936H46.0964L43.8799 42.8323ZM31.6482 48.1044C31.183 48.1044 30.8911 47.8308 30.8911 47.4112C30.8911 47.2197 30.9185 47.0372 30.9914 46.8639L33.8282 39.3297C34.038 38.755 34.4211 38.4814 34.9501 38.4814C35.4883 38.4814 35.8714 38.7733 36.0812 39.3297L38.9179 46.8639C38.9909 47.0555 39.0365 47.2288 39.0365 47.4112C39.0365 47.8217 38.7264 48.1044 38.2703 48.1044C37.8872 48.1044 37.6409 47.9311 37.495 47.4659L36.7379 45.2312H33.1714L32.4144 47.4659C32.2684 47.9129 32.0222 48.1044 31.6482 48.1044ZM33.5728 44.0454H36.3366L35.0596 40.2418H34.8498L33.5728 44.0454Z" fill="black"/>
</g>
<path d="M12.32 90.6135C12.32 90.357 12.4123 90.121 12.6073 89.9363L20.7447 81.9733C20.9191 81.7989 21.1449 81.7065 21.4117 81.7065C21.9453 81.7065 22.3558 82.1067 22.3558 82.6403C22.3558 82.8969 22.2429 83.1329 22.0787 83.3073L14.6083 90.6135L22.0787 97.9198C22.2429 98.0942 22.3558 98.32 22.3558 98.5868C22.3558 99.1204 21.9453 99.5206 21.4117 99.5206C21.1449 99.5206 20.9191 99.4282 20.7447 99.2435L12.6073 91.2908C12.4123 91.0958 12.32 90.8701 12.32 90.6135Z" fill="#007AFF"/>
<defs>
<filter id="filter0_d_0_328" x="-35.0656" y="0.622061" width="58.9606" height="86.3977" filterUnits="userSpaceOnUse" color-interpolation-filters="sRGB">
<feFlood flood-opacity="0" result="BackgroundImageFix"/>
<feColorMatrix in="SourceAlpha" type="matrix" values="0 0 0 0 0 0 0 0 0 0 0 0 0 0 0 0 0 0 127 0" result="hardAlpha"/>
<feOffset dy="2.33507"/>
<feGaussianBlur stdDeviation="9.34029"/>
<feComposite in2="hardAlpha" operator="out"/>
<feColorMatrix type="matrix" values="0 0 0 0 0 0 0 0 0 0 0 0 0 0 0 0 0 0 0.15 0"/>
<feBlend mode="normal" in2="BackgroundImageFix" result="effect1_dropShadow_0_328"/>
<feBlend mode="normal" in="SourceGraphic" in2="effect1_dropShadow_0_328" result="shape"/>
</filter>
<filter id="filter1_d_0_328" x="-4.12588" y="0.622061" width="430.821" height="86.3977" filterUnits="userSpaceOnUse" color-interpolation-filters="sRGB">
<feFlood flood-opacity="0" result="BackgroundImageFix"/>
<feColorMatrix in="SourceAlpha" type="matrix" values="0 0 0 0 0 0 0 0 0 0 0 0 0 0 0 0 0 0 127 0" result="hardAlpha"/>
<feOffset dy="2.33507"/>
<feGaussianBlur stdDeviation="9.34029"/>
<feComposite in2="hardAlpha" operator="out"/>
<feColorMatrix type="matrix" values="0 0 0 0 0 0 0 0 0 0 0 0 0 0 0 0 0 0 0.15 0"/>
<feBlend mode="normal" in2="BackgroundImageFix" result="effect1_dropShadow_0_328"/>
<feBlend mode="normal" in="SourceGraphic" in2="effect1_dropShadow_0_328" result="shape"/>
</filter>
</defs>
</svg>
