<svg width="63" height="48" viewBox="0 0 63 48" fill="none" xmlns="http://www.w3.org/2000/svg">
<g id="Group 1160442879">
<path id="Background" fill-rule="evenodd" clip-rule="evenodd" d="M17.4239 4.10107C19.3322 3.99139 21.2384 4.00017 23.1468 4.00017C23.16 4.00017 32.817 4.00017 32.817 4.00017C34.7627 4.00017 36.6689 3.99139 38.5761 4.10107C40.3101 4.19978 41.9992 4.41036 43.6805 4.88087C47.2198 5.87016 50.3105 7.93647 52.5446 10.8659C54.7655 13.7768 55.9676 17.3402 55.9676 20.999C55.9676 24.6622 54.7655 28.2234 52.5446 31.1342C50.3105 34.0626 47.2198 36.13 43.6805 37.1193C41.9992 37.5898 40.3101 37.7993 38.5761 37.8991C36.6689 38.0088 34.7627 37.9989 32.8543 37.9989C32.8411 37.9989 23.1819 38 23.1819 38C21.2384 37.9989 19.3322 38.0088 17.4239 37.8991C15.691 37.7993 14.0019 37.5898 12.3206 37.1193C8.78132 36.13 5.69062 34.0626 3.45651 31.1342C1.23555 28.2234 0.0323944 24.6622 0.0323944 21.0001C0.0323944 17.3402 1.23555 13.7768 3.45651 10.8659C5.69062 7.93647 8.78132 5.87016 12.3206 4.88087C14.0019 4.41036 15.691 4.19978 17.4239 4.10107Z" fill="#34C759"/>
<g id="Knob" filter="url(#filter0_dd_0_338)">
<path fill-rule="evenodd" clip-rule="evenodd" d="M38.9674 35.8058C47.1447 35.8058 53.7737 29.1768 53.7737 20.9994C53.7737 12.8221 47.1447 6.19305 38.9674 6.19305C30.79 6.19305 24.161 12.8221 24.161 20.9994C24.161 29.1768 30.79 35.8058 38.9674 35.8058Z" fill="white"/>
</g>
</g>
<defs>
<filter id="filter0_dd_0_338" x="15.3868" y="0.70921" width="47.1611" height="47.1611" filterUnits="userSpaceOnUse" color-interpolation-filters="sRGB">
<feFlood flood-opacity="0" result="BackgroundImageFix"/>
<feColorMatrix in="SourceAlpha" type="matrix" values="0 0 0 0 0 0 0 0 0 0 0 0 0 0 0 0 0 0 127 0" result="hardAlpha"/>
<feOffset dy="3.29031"/>
<feGaussianBlur stdDeviation="0.548384"/>
<feColorMatrix type="matrix" values="0 0 0 0 0 0 0 0 0 0 0 0 0 0 0 0 0 0 0.06 0"/>
<feBlend mode="normal" in2="BackgroundImageFix" result="effect1_dropShadow_0_338"/>
<feColorMatrix in="SourceAlpha" type="matrix" values="0 0 0 0 0 0 0 0 0 0 0 0 0 0 0 0 0 0 127 0" result="hardAlpha"/>
<feOffset dy="3.29031"/>
<feGaussianBlur stdDeviation="4.38708"/>
<feColorMatrix type="matrix" values="0 0 0 0 0 0 0 0 0 0 0 0 0 0 0 0 0 0 0.15 0"/>
<feBlend mode="normal" in2="effect1_dropShadow_0_338" result="effect2_dropShadow_0_338"/>
<feBlend mode="normal" in="SourceGraphic" in2="effect2_dropShadow_0_338" result="shape"/>
</filter>
</defs>
</svg>
